# Blender v2.79 (sub 0) OBJ File: ''
# www.blender.org
mtllib bushes.mtl
o Icosphere
v 0.276388 0.557039 0.850649
v -0.723607 0.557039 0.525725
v -0.723607 0.557039 -0.525725
v 0.276388 0.557039 -0.850649
v 0.894426 0.557035 0.000000
v 0.000000 1.109819 0.000000
v 0.862653 0.040444 0.280289
v 0.862653 0.040444 -0.280289
v 0.000000 0.040444 0.907046
v 0.533149 0.040444 0.733815
v -0.862653 0.040444 0.280289
v -0.533148 0.040444 0.733815
v -0.533148 0.040444 -0.733815
v -0.862653 0.040444 -0.280289
v 0.533149 0.040444 -0.733815
v 0.000000 0.040444 -0.907046
v 0.688189 0.635556 0.499997
v -0.262869 0.635557 0.809012
v -0.850648 0.635555 0.000000
v -0.262869 0.635557 -0.809012
v 0.688189 0.635556 -0.499997
v 0.162456 0.960474 0.499995
v 0.525730 0.960471 0.000000
v -0.425323 0.960474 0.309011
v -0.425323 0.960474 -0.309011
v 0.162456 0.960474 -0.499995
v 0.516507 0.459166 -0.275379
v -0.276429 0.459166 -0.533024
v -0.276429 0.459166 -1.366761
v 0.516507 0.459166 -1.624406
v 1.006574 0.459163 -0.949893
v 0.297348 0.897487 -0.949893
v 0.981380 0.049537 -0.727641
v 0.981380 0.049537 -1.172145
v 0.297348 0.049537 -0.230660
v 0.720102 0.049537 -0.368021
v -0.386684 0.049537 -0.727641
v -0.125407 0.049537 -0.368021
v -0.125407 0.049537 -1.531764
v -0.386684 0.049537 -1.172145
v 0.720102 0.049537 -1.531764
v 0.297348 0.049537 -1.669125
v 0.843040 0.521425 -0.553425
v 0.088908 0.521426 -0.308395
v -0.377165 0.521424 -0.949893
v 0.088908 0.521426 -1.591390
v 0.843040 0.521425 -1.346360
v 0.426165 0.779065 -0.553426
v 0.714220 0.779063 -0.949893
v -0.039908 0.779065 -0.704865
v -0.039908 0.779065 -1.194920
v 0.426165 0.779065 -1.346359
v -0.194123 0.313533 -0.136959
v -0.738401 0.313533 -0.313809
v -0.738401 0.313533 -0.886093
v -0.194123 0.313533 -1.062943
v 0.142263 0.313530 -0.599951
v -0.344556 0.614401 -0.599951
v 0.124970 0.032360 -0.447395
v 0.124970 0.032360 -0.752507
v -0.344556 0.032360 -0.106263
v -0.054373 0.032360 -0.200549
v -0.814081 0.032360 -0.447395
v -0.634738 0.032360 -0.200549
v -0.634738 0.032360 -0.999353
v -0.814081 0.032360 -0.752507
v -0.054373 0.032360 -0.999353
v -0.344556 0.032360 -1.093639
v 0.030013 0.356268 -0.327812
v -0.487630 0.356268 -0.159621
v -0.807547 0.356268 -0.599951
v -0.487630 0.356268 -1.040281
v 0.030013 0.356268 -0.872090
v -0.256134 0.533115 -0.327813
v -0.058411 0.533113 -0.599951
v -0.576051 0.533114 -0.431762
v -0.576051 0.533114 -0.768140
v -0.256134 0.533115 -0.872089
vn 0.4089 0.6617 0.6284
vn -0.4713 0.6617 0.5831
vn -0.7002 0.6617 -0.2680
vn 0.0385 0.6617 -0.7488
vn 0.7240 0.6617 -0.1947
vn 0.2680 0.9435 -0.1947
vn 0.4911 0.7947 -0.3568
vn 0.4089 0.6617 -0.6284
vn -0.1024 0.9435 -0.3151
vn -0.1876 0.7947 -0.5773
vn -0.4713 0.6617 -0.5831
vn -0.3313 0.9435 0.0000
vn -0.6071 0.7947 0.0000
vn -0.7002 0.6617 0.2680
vn -0.1024 0.9435 0.3151
vn -0.1876 0.7947 0.5773
vn 0.0385 0.6617 0.7488
vn 0.2680 0.9435 0.1947
vn 0.4911 0.7947 0.3568
vn 0.7240 0.6617 0.1947
vn 0.9231 0.1380 -0.3591
vn 0.8089 0.0202 -0.5877
vn 0.6267 0.1380 -0.7669
vn -0.0563 0.1380 -0.9888
vn -0.3090 0.0202 -0.9509
vn -0.5357 0.1380 -0.8330
vn -0.9578 0.1380 -0.2521
vn -0.9998 0.0202 0.0000
vn -0.9578 0.1380 0.2521
vn -0.5357 0.1380 0.8330
vn -0.3090 0.0202 0.9509
vn -0.0563 0.1380 0.9888
vn 0.6267 0.1380 0.7669
vn 0.8089 0.0202 0.5877
vn 0.9231 0.1380 0.3591
vn 0.3084 -0.0614 -0.9493
vn -0.8075 -0.0614 -0.5867
vn -0.8075 -0.0614 0.5867
vn 0.3084 -0.0614 0.9493
vn 0.9981 -0.0614 0.0000
vn 0.0000 -1.0000 0.0000
vn -0.0562 0.1380 -0.9888
usemtl bush
s off
f 1//1 17//1 22//1
f 2//2 18//2 24//2
f 3//3 19//3 25//3
f 4//4 20//4 26//4
f 5//5 21//5 23//5
f 23//6 26//6 6//6
f 23//7 21//7 26//7
f 21//8 4//8 26//8
f 26//9 25//9 6//9
f 26//10 20//10 25//10
f 20//11 3//11 25//11
f 25//12 24//12 6//12
f 25//13 19//13 24//13
f 19//14 2//14 24//14
f 24//15 22//15 6//15
f 24//16 18//16 22//16
f 18//17 1//17 22//17
f 22//18 23//18 6//18
f 22//19 17//19 23//19
f 17//20 5//20 23//20
f 8//21 21//21 5//21
f 8//22 15//22 21//22
f 15//23 4//23 21//23
f 16//24 20//24 4//24
f 16//25 13//25 20//25
f 13//26 3//26 20//26
f 14//27 19//27 3//27
f 14//28 11//28 19//28
f 11//29 2//29 19//29
f 12//30 18//30 2//30
f 12//31 9//31 18//31
f 9//32 1//32 18//32
f 10//33 17//33 1//33
f 10//34 7//34 17//34
f 7//35 5//35 17//35
f 15//36 16//36 4//36
f 13//37 14//37 3//37
f 11//38 12//38 2//38
f 9//39 10//39 1//39
f 7//40 8//40 5//40
f 7//41 10//41 9//41 12//41 11//41 14//41 13//41 16//41 15//41 8//41
f 27//1 43//1 48//1
f 28//2 44//2 50//2
f 29//3 45//3 51//3
f 30//4 46//4 52//4
f 31//5 47//5 49//5
f 49//6 52//6 32//6
f 49//7 47//7 52//7
f 47//8 30//8 52//8
f 52//9 51//9 32//9
f 52//10 46//10 51//10
f 46//11 29//11 51//11
f 51//12 50//12 32//12
f 51//13 45//13 50//13
f 45//14 28//14 50//14
f 50//15 48//15 32//15
f 50//16 44//16 48//16
f 44//17 27//17 48//17
f 48//18 49//18 32//18
f 48//19 43//19 49//19
f 43//20 31//20 49//20
f 34//21 47//21 31//21
f 34//22 41//22 47//22
f 41//23 30//23 47//23
f 42//42 46//42 30//42
f 42//25 39//25 46//25
f 39//26 29//26 46//26
f 40//27 45//27 29//27
f 40//28 37//28 45//28
f 37//29 28//29 45//29
f 38//30 44//30 28//30
f 38//31 35//31 44//31
f 35//32 27//32 44//32
f 36//33 43//33 27//33
f 36//34 33//34 43//34
f 33//35 31//35 43//35
f 41//36 42//36 30//36
f 39//37 40//37 29//37
f 37//38 38//38 28//38
f 35//39 36//39 27//39
f 33//40 34//40 31//40
f 33//41 36//41 35//41 38//41 37//41 40//41 39//41 42//41 41//41 34//41
f 53//1 69//1 74//1
f 54//2 70//2 76//2
f 55//3 71//3 77//3
f 56//4 72//4 78//4
f 57//5 73//5 75//5
f 75//6 78//6 58//6
f 75//7 73//7 78//7
f 73//8 56//8 78//8
f 78//9 77//9 58//9
f 78//10 72//10 77//10
f 72//11 55//11 77//11
f 77//12 76//12 58//12
f 77//13 71//13 76//13
f 71//14 54//14 76//14
f 76//15 74//15 58//15
f 76//16 70//16 74//16
f 70//17 53//17 74//17
f 74//18 75//18 58//18
f 74//19 69//19 75//19
f 69//20 57//20 75//20
f 60//21 73//21 57//21
f 60//22 67//22 73//22
f 67//23 56//23 73//23
f 68//24 72//24 56//24
f 68//25 65//25 72//25
f 65//26 55//26 72//26
f 66//27 71//27 55//27
f 66//28 63//28 71//28
f 63//29 54//29 71//29
f 64//30 70//30 54//30
f 64//31 61//31 70//31
f 61//32 53//32 70//32
f 62//33 69//33 53//33
f 62//34 59//34 69//34
f 59//35 57//35 69//35
f 67//36 68//36 56//36
f 65//37 66//37 55//37
f 63//38 64//38 54//38
f 61//39 62//39 53//39
f 59//40 60//40 57//40
f 59//41 62//41 61//41 64//41 63//41 66//41 65//41 68//41 67//41 60//41
